<?xml version="1.0" encoding="utf-8"?>
<!-- Generator: Adobe Illustrator 24.2.3, SVG Export Plug-In . SVG Version: 6.00 Build 0)  -->
<svg version="1.1" xmlns="http://www.w3.org/2000/svg" xmlns:xlink="http://www.w3.org/1999/xlink" x="0px" y="0px"
	 viewBox="0 0 500 500" style="enable-background:new 0 0 500 500;" xml:space="preserve">
<style type="text/css">
	.st0{fill:#FFFFFF;}
	.st1{fill:none;stroke:#FFFFFF;stroke-width:2.2511;stroke-miterlimit:10;}
	.st2{fill:none;stroke:#FFFFFF;stroke-width:1.0505;stroke-miterlimit:10;}
</style>
<g id="Layer_5">
	<g>
		<path class="st0" d="M314.61,384c-2.21,2.24-4.43,4.41-6.57,6.64l-6.48,6.72c-2.17,2.3-4.32,4.63-6.55,7.26
			c3.46-0.42,6.61-1.81,9.51-3.49c2.89-1.72,5.56-3.8,7.89-6.21c2.32-2.41,4.41-5.07,6.03-8.01c1.66-2.91,2.89-6.09,3.45-9.49
			C319.13,379.54,316.91,381.82,314.61,384z"/>
		<path class="st0" d="M204.42,390.65c-2.14-2.24-4.36-4.4-6.57-6.64c-2.29-2.19-4.52-4.47-7.29-6.59c0.56,3.4,1.79,6.58,3.45,9.49
			c1.62,2.95,3.71,5.6,6.03,8.01c2.33,2.41,5,4.49,7.89,6.21c2.9,1.68,6.05,3.07,9.51,3.49c-2.23-2.63-4.38-4.96-6.55-7.26
			L204.42,390.65z"/>
		<path class="st0" d="M242.33,318.67c13.99,14.68,27.8,0,27.8,0C254.32,324.53,242.33,318.67,242.33,318.67z"/>
		<path class="st0" d="M189.15,427.48c-5.4,0-9.8,4.4-9.8,9.8c0,5.4,4.4,9.8,9.8,9.8c5.4,0,9.8-4.4,9.8-9.8
			C198.95,431.87,194.55,427.48,189.15,427.48z M189.15,442.65c-2.96,0-5.38-2.41-5.38-5.38c0-2.96,2.41-5.37,5.38-5.37
			c2.96,0,5.38,2.41,5.38,5.37C194.52,440.24,192.11,442.65,189.15,442.65z M197.37,437.28h-1.27v0c0-3.83-3.12-6.95-6.95-6.95
			s-6.95,3.12-6.95,6.95c0,0.26,0.05,0.52,0.08,0.77l-1.18,0.87c-0.11-0.53-0.17-1.08-0.17-1.64c0-4.53,3.69-8.22,8.22-8.22
			C193.68,429.05,197.37,432.74,197.37,437.28L197.37,437.28z"/>
		<path class="st0" d="M193.48,148.36c-9.18,10.71-24.92,15.39-24.92,15.39l9.83,28.33c30.39-18.47,61.34-19.74,61.34-19.74
			l-3.91-26.53C216.69,156.01,193.48,148.36,193.48,148.36z"/>
		<path class="st0" d="M341.34,163.75c0,0-6.84-5.72-11.65-12.82c0,0-7.91,0.53-14.28,0l-4.08,29.57c0,0,14.71,4.89,22.45,12.75
			L341.34,163.75z"/>
		<path class="st0" d="M284.03,172.09c0,0,14.03,1.78,18.37,3.82l4.59-24.98c0,0-10.26-1.12-21.07-7.33L284.03,172.09z"/>
		<path class="st0" d="M128.18,407.18c2.3-2.21,45.66-16.07,49.48-16.15c0,0,7.4,7.82,22.19,11.9c0,0-15.13-14.79-16.88-19.13
			c0,0,10.1-21.89,12.19-32.14l-12.19,25.76l-78.27,23.98c0,0,16.32,24.49,38.77,33.41C143.49,434.81,125.89,409.39,128.18,407.18z"
			/>
		<path class="st0" d="M341.34,384.31c0,0-3.74,15.53-8.33,21.03c0,0,19.68-15.25,23.36-17.63c0,0-10.61,26.19-21.83,34.86
			c0,0,21.13-12.44,38.26-23.47c0,0-9.18,29.08-24.74,39.79c0,0,30.1-6.38,56.12-39.79l-72.49-21.68c0,0-7.86,14.96-12.7,20.75
			C318.98,398.16,330.77,392.28,341.34,384.31z"/>
		<path class="st0" d="M325.1,369.26l-6.12-19.13c0,0-5.87,7.4-14.03,12.75s-6.59,20.75-3.72,28.14
			C301.23,391.02,312.35,382.78,325.1,369.26z"/>
		<path class="st0" d="M236.85,405.34c3.92-11.88-6.13-28.26-15.05-33.02c-8.93-4.76-17.79-13.26-17.79-13.26l-6.95,18.37
			C212.7,394.76,236.85,405.34,236.85,405.34z"/>
		<path class="st0" d="M168.57,210.07l-3.8-14.8c-28.51-13.94-28.93-38.53-28.93-38.53C174.27,154.04,174,130.6,174,130.6
			c-9.45,8.93-20.14,8.75-20.14,8.75c15.64-9.18,12.65-27.24,12.65-27.24s-13.33,7.51-15.71-3.54c-2.38-11.05,9.01-18.54,9.01-18.54
			s-40.64,6.46-46.76,47.95c-6.12,41.49,41.15,58.16,41.15,58.16c-15.83-0.23-31.29-12.36-31.29-12.36
			C147.74,211.22,168.57,210.07,168.57,210.07z"/>
		<path class="st0" d="M235.48,120.53c0,0,9.53-13.42,4.23-13.66c-10.01-0.45-22.59,27.3-43,27.21c0,0,20.75,3.59,31.97-1.87
			c11.22-5.47,21.43-23.64,21.43-23.64S242.63,118.38,235.48,120.53z"/>
		<path class="st0" d="M254.19,73.23c38.6,5.07-1.02,13.06-9.18,9.32c0,0,3.57,7.48,27.72,8.84c0,0,20.24-23.1,40.98-29.25
			c-0.55,0.16-3.16-1.75-3.66-2.01c-3.3-1.74-6.67-3.34-10.09-4.83c-10.28-4.47-21.09-8-32.21-9.63
			c-20.01-2.95-43.53,2.37-59.75,14.88c-5.98,4.61-10.91,10.67-13.06,18c-2.51,8.57-0.88,17.66,2.45,25.77
			C197.39,104.32,210.37,67.47,254.19,73.23z"/>
		<path class="st0" d="M316.43,137.31c37.07,3.4,37.03-30.62,30.61-32.99c-15.69-5.78-37.41,39.11-74.31,10.2
			C272.72,114.52,279.36,133.91,316.43,137.31z"/>
		<path class="st0" d="M351.29,73.42c-24.57-0.5-30.61,8.98-30.61,8.98c29.93-14.28,58.5,6.46,61.56,25.83
			c0,4.32,0.74,8.17-0.41,12.48c-0.91,3.4-2.59,6.55-4.98,9.14c-6.12,6.63-14.37,7.26-22.8,8.66c-0.86,0.14-1.73,0.29-2.48,0.73
			c-0.75,0.44-1.35,1.23-1.31,2.1c0.14,2.75,8.74,3.98,10.81,4.3c3.35,0.53,6.77,0.57,10.12,0.05c2-0.31,7.69-1.05,9.01-3
			c-12.24,18.11-37.73,8.24-37.73,8.24c8.2,4.1,15.6,8.13,25.13,7.35c0.35-0.03,0.71-0.06,1.06-0.11
			c10.92-1.28,21.1-8.15,25.63-18.26c4.12-9.2,3.74-19.92,1.27-29.5c-4.34-16.83-15.97-30.7-32.21-37.17
			c-37.57-14.96-62.75,6.14-62.75,6.14C329.18,63.08,351.29,73.42,351.29,73.42z"/>
		<path class="st0" d="M352.82,167.11l-6.04,29.21c28.28,4.65,36.22-19.39,27.29-17.86c-8.93,1.53-17.71-5.1-17.71-5.1
			c19.28,1.79,27.91-8.16,27.91-8.16C366.68,172.34,352.82,167.11,352.82,167.11z"/>
		<path class="st0" d="M276.59,209.54c-1.82,0.49-5.01,1.49-6.16,3.19c0,0.03,0,0.06,0,0.09l-0.11-0.09
			c-0.53,0.82-0.67,1.21-0.93,1.77c-0.22,0.52-0.42,1.03-0.59,1.53c-0.36,1.01-0.63,2-0.88,3c-0.5,1.98-0.84,3.95-1.11,5.91
			c-0.53,3.93-0.77,7.82-0.84,11.71c-0.06,3.88,0.04,7.74,0.24,11.59c0.21,3.85,0.55,7.68,0.93,11.49c0.14-3.84,0.3-7.66,0.6-11.48
			c0.11-1.44,0.26-2.87,0.41-4.31c0.16-0.09,0.3-0.16,0.49-0.29c2.93-2.12,3.2-6.07,6.6-7.72c0.83-0.4,3.29-0.66,5.32-1.25
			c1.04,0.49,2.13,0.88,3.23,1.16c1.24,0.29,2.5,0.49,3.78,0.51c1.27,0.03,2.56-0.05,3.82-0.44c-2.43-0.89-4.76-1.44-7.1-2.05
			c-0.45-0.1-0.9-0.21-1.34-0.32c0.5-0.46,0.72-1.03,0.43-1.77c-0.36-0.93-1.85-2.97-2.65-3.57c-0.9-0.68-1.57-1.12-2.74-2.06
			c-0.11-0.11-0.24-0.21-0.38-0.31c-0.04-0.03-0.06-0.05-0.1-0.08c-0.01,0-0.01,0-0.02,0c-0.26-0.16-0.54-0.3-0.83-0.44
			c-0.03-0.01-0.06-0.03-0.09-0.05c-1-0.84-2.02-1.64-3.05-2.42c2.66-0.85,5.31-1.47,8.03-1.72c0.14-0.01,0.27-0.01,0.41-0.03
			c-0.01,0.1-0.03,0.19-0.03,0.29c0,3.75,4.28,6.8,9.57,6.8c4.52,0,8.28-2.23,9.29-5.23c0.45,0.11,0.9,0.19,1.34,0.31
			c2.19,0.6,4.42,1.3,6.58,2.06c-0.05,0.05-0.11,0.1-0.16,0.14c-1.08,0.95-2.21,1.85-3.38,2.7c-2.31,1.76-4.75,3.3-7.54,4.52
			c3.08,0.15,6.15-0.75,9.03-1.86c1.42-0.61,2.82-1.28,4.19-2.02c1.37-0.76,2.66-1.53,3.99-2.51l2.79-2.04l-3.21-1.95
			c-3.43-2.08-6.89-3.57-10.59-4.78c-1.88-0.61-3.81-1.11-5.76-1.49c0.86-1.25,1.92-2.95,2.38-4.59c9.92,0.89,17.58,3.11,17.58,3.11
			l5.1-9.6c-25.41-6.62-38.98-0.73-45.42,4.3C277.34,209.38,276.96,209.44,276.59,209.54z"/>
		<path class="st0" d="M228.05,235.84c2.46-0.62,4.86-1.7,6.73-3.52c-2.58,0.37-4.86,1-7.22,1.54c-2.34,0.61-4.67,1.16-7.1,2.05
			c1.26,0.39,2.55,0.47,3.82,0.44C225.55,236.33,226.81,236.12,228.05,235.84z"/>
		<path class="st0" d="M273.69,202.75c1.06-0.72,2.16-1.37,3.37-2.09c-2.82-0.21-5.56,1.1-7.71,2.8c-1.06,0.89-2.05,1.87-2.87,2.98
			c-0.82,1.1-1.54,2.29-1.96,3.63c2.2-1.69,4.09-3.42,6.1-5.02C271.62,204.23,272.65,203.5,273.69,202.75z"/>
		<path class="st0" d="M240.71,207.16c2.01,1.6,3.91,3.33,6.1,5.02c-0.42-1.34-1.14-2.53-1.96-3.63c-0.82-1.11-1.8-2.09-2.87-2.98
			c-2.15-1.7-4.89-3.01-7.71-2.81c1.21,0.73,2.31,1.37,3.37,2.1C238.68,205.61,239.72,206.35,240.71,207.16z"/>
		<path class="st0" d="M190.5,248.53c-1.54-3.71-2.94-7.45-4.49-11.28c-0.04,2.08,0.27,4.14,0.74,6.15c0.45,2.02,1.1,3.98,1.87,5.9
			c1.58,3.81,3.68,7.45,6.57,10.44c-0.73-1.95-1.58-3.78-2.36-5.65C192.03,252.23,191.24,250.39,190.5,248.53z"/>
		<path class="st0" d="M317.96,254.09c-0.78,1.86-1.63,3.69-2.36,5.65c2.89-2.99,4.99-6.63,6.57-10.44c0.77-1.92,1.42-3.88,1.87-5.9
			c0.46-2.01,0.78-4.07,0.74-6.15c-1.56,3.83-2.95,7.57-4.49,11.28C319.54,250.39,318.75,252.23,317.96,254.09z"/>
		<path class="st0" d="M214.52,320.54c-1.21-1.9-2.49-3.71-3.8-5.48c4.48-7.56,9.25-12.08,14.57-14.47
			c8.2,10.95,23.04,14.12,31.36,14.12c8.37,0,18.39-3.22,26.04-14.32c0.78-0.18,1.55-0.37,2.33-0.56
			c6.31,2.13,11.85,6.93,17.01,15.81c-1.41,1.2-2.82,2.39-4.22,3.6c-3.75,3.31-7.48,6.61-11.05,10.22c2.28-1.14,4.41-2.52,6.46-3.99
			c2.06-1.46,4.02-3.05,5.93-4.7c3.78-3.34,7.35-6.94,10.31-11.08c-2.08,1.48-4.01,3.08-5.94,4.67c-0.36,0.3-0.7,0.6-1.05,0.9
			c-0.6-5.93-4.22-30.85-23.33-35.29c-2.9-0.67-6.19-1.13-9.42-0.99c0.72-0.28,1.46-0.57,2.21-0.85l2.05-0.8l0.26-0.11l0.4-0.2
			c0.27-0.14,0.53-0.28,0.78-0.43c0.51-0.27,0.97-0.9,1.36-1.38c0.63-1.18,0.73-2.42,0.55-3.33c-0.07-0.48-0.17-0.93-0.33-1.33
			c-0.14-0.41-0.27-0.82-0.47-1.17c-0.41-0.78-0.86-1.51-1.33-2.2c2.71,1.94,5.41,3.85,7.98,5.9c1.72,1.33,3.36,2.74,4.88,4.27
			c1.49,1.55,2.95,3.16,3.96,5.17c-0.32-2.24-1.46-4.34-2.82-6.15c-1.35-1.85-3-3.43-4.73-4.88c-1.75-1.43-3.58-2.74-5.52-3.87
			c-1.77-1.04-3.6-1.95-5.53-2.68c-0.83-0.92-1.7-1.78-2.64-2.57c1.19,2.69,2.45,5.39,2.93,7.98c0.3,1.24,0.1,2.54-0.2,2.58
			c-0.21,0.01-0.22,0.01-0.81,0.15l-2.12,0.44c-2.81,0.64-5.9,1.19-9.01,3.16c-1.52,0.89-2.96,2.68-3.54,3.17
			c-0.39,0.34-0.77,0.62-1.08,0.78c-0.15,0.07-0.29,0.12-0.36,0.14c-0.03,0-0.05,0.01-0.05,0.01c0.02,0,0.02,0,0.06,0l0.08,0
			l0.08,0.01l0.23,0.05h-1.48l0.23-0.05l0.08-0.01l0.08,0c0.04,0,0.05,0,0.06,0c0,0-0.01,0-0.05-0.01
			c-0.08-0.01-0.21-0.07-0.36-0.14c-0.31-0.16-0.7-0.43-1.08-0.78c-0.58-0.49-2.02-2.28-3.54-3.17c-3.12-1.97-6.2-2.53-9.01-3.16
			l-2.12-0.44c-0.6-0.14-0.59-0.15-0.81-0.15c-0.3-0.04-0.51-1.33-0.2-2.57c0.04-0.22,0.11-0.44,0.16-0.65
			c1.47-2.25,2.51-5.59,5.16-7.78c0.52-0.43,0.91-1.35,1.2-2.59c0,0.13,0.01,0.26,0.02,0.39c0.03-0.27,0.05-0.54,0.07-0.8
			c0.43-2.06,0.62-4.91,0.67-8.03c0.06-0.89,0.14-1.77,0.19-2.66c0.21-3.85,0.31-7.71,0.24-11.59c-0.07-3.88-0.31-7.78-0.84-11.71
			c-0.27-1.96-0.61-3.93-1.11-5.91c-0.25-0.99-0.52-1.98-0.88-3c-0.04-0.12-0.1-0.26-0.15-0.38c-0.18-0.51-0.37-1.01-0.58-1.47
			c-0.19-0.42-0.36-0.8-0.79-1.45c0,0-5.12-3.99-11.52-6.13c-7.51-4.04-20.4-7.05-41.29-1.61l5.1,9.6c0,0,9.8-2.84,21.6-3.38
			c0.25,1.56,1.1,3.11,2.28,4.26c-3.31,0.38-6.56,1.08-9.69,2.09c-3.7,1.21-7.16,2.7-10.59,4.78l-3.21,1.95l2.79,2.04
			c1.34,0.97,2.62,1.74,3.99,2.51c1.37,0.73,2.76,1.41,4.19,2.02c2.88,1.11,5.95,2.01,9.03,1.86c-2.79-1.22-5.23-2.76-7.54-4.52
			c-1.17-0.85-2.29-1.76-3.38-2.7c-0.05-0.05-0.11-0.1-0.16-0.14c2.16-0.76,4.39-1.46,6.58-2.06c0.45-0.12,0.9-0.2,1.34-0.31
			c1,2.99,4.77,5.23,9.29,5.23c5.28,0,9.57-3.04,9.57-6.8c0-0.1-0.03-0.19-0.03-0.29c0.14,0.01,0.27,0.01,0.41,0.03
			c2.72,0.26,5.37,0.88,8.03,1.72c-1.08,0.82-2.15,1.66-3.2,2.54c-0.17,0.12-0.32,0.24-0.45,0.37c-0.06,0.05-0.12,0.1-0.18,0.15
			c0.02-0.01,0.05-0.01,0.07-0.02c-0.56,0.63-0.59,1.36,0.43,2.27c1.46,1.31,3.51,0.99,4.95,2.38c0.22,0.22,0.47,0.48,0.74,0.75
			c-0.08,2.91-0.17,5.97,0.02,8.58c0.47,6.63-5.71,21.06-6.16,25.17c-0.07,0.64-0.07,1.26-0.03,1.85c-0.67,0.37-1.34,0.72-1.99,1.11
			c-2.07,1.23-4.03,2.65-5.92,4.17c-1.87,1.54-3.64,3.23-5.15,5.16c-1.5,1.9-2.84,4.1-3.21,6.52c1.06-2.17,2.69-3.87,4.33-5.52
			c1.67-1.62,3.44-3.15,5.31-4.57c2.25-1.78,4.58-3.48,6.92-5.17c0.11,0.4,0.25,0.76,0.41,1.07c-0.14,0.29-0.26,0.59-0.37,0.91
			c-0.16,0.39-0.26,0.85-0.33,1.33c-0.19,0.92-0.08,2.15,0.55,3.34c0.39,0.48,0.86,1.12,1.37,1.38c0.25,0.15,0.52,0.29,0.78,0.43
			l0.4,0.2l0.26,0.11l2.05,0.8c0.66,0.26,1.32,0.51,1.97,0.76c-3.15-0.1-6.35,0.34-9.18,1c-18.21,4.23-22.36,27.06-23.22,34.33
			c-0.97-1.3-1.94-2.59-2.92-3.89c-2.56-3.29-5.09-6.58-7.99-9.7c1.54,3.99,3.84,7.57,6.37,10.94
			C208.15,314.91,211.05,318.05,214.52,320.54z M256.14,286.89l0.11-0.01l0.1,0.01c-0.04,0.11-0.07,0.22-0.1,0.32
			C256.21,287.1,256.18,286.99,256.14,286.89z M238.18,298.35c4.49,0.17,10.94,1.2,14.99-1.56c0.46-0.31,0.89-0.67,1.28-1.09
			c0.84-0.9,1.42-1.95,1.77-3.07c0.36,1.15,0.94,2.23,1.79,3.15c0.39,0.42,0.82,0.78,1.28,1.09c4.05,2.76,10.5,1.73,14.99,1.56
			c2.46-0.09,4.79,0.05,7.03,0.44c-0.17,1.27-0.43,1.92-0.43,1.92c-22.16,15.21-44.52,5.19-53.25,0.07
			c-0.24-1.07,0.77-1.61,1.5-1.63C231.98,298.49,234.98,298.23,238.18,298.35z"/>
		<path class="st0" d="M174.95,428.26l5.19-9.27c0,0,20.17,8.36,53.01,9.27c0,0-54.2-13.26-59.94-15.39L174.95,428.26z"/>
		<path class="st0" d="M257.12,345.24c-1.2,0.05-2.4-0.09-3.61-0.27c-1.22-0.2-2.44-0.49-3.74-0.88c0.84,1.09,2.02,1.87,3.29,2.4
			c1.28,0.54,2.68,0.8,4.08,0.79c1.39-0.06,2.8-0.27,4.06-0.86c1.28-0.52,2.41-1.34,3.33-2.33c-1.35,0.26-2.56,0.61-3.79,0.8
			C259.52,345.13,258.32,345.22,257.12,345.24z"/>
		<path class="st0" d="M242.33,269.65c0,0-0.22,2.3,4.48,3.19c4.7,0.89,6.4,4.08,9,4.34c2.59,0.25,8.46-3.95,12.92-5.1
			c4.46-1.15,3.53-2.93,2.02-3.57c-1.51-0.64-11.39,4.21-14.74,3.32C252.66,270.93,241.05,265.95,242.33,269.65z"/>
		<path class="st0" d="M414.95,392.58l-80.26-24.77c-2.27-6.53-11.14-32.12-12.69-35.53c-1.47-3.24-7.48-6.29-12.36-8.32
			c7.04-6.85,12.01-12.97,12.82-16.2c0.72-2.9,3.29-15.86,6.33-31.53c0.3-0.05,0.59-0.12,0.89-0.21
			c5.63-1.79,10.79-11.73,12.06-14.35c4.85-6.65,25.86-40.66,14.19-49.9c-2.11-1.67-4.59-2.26-7.18-1.71
			c-2.99,0.64-5.85,2.83-8.33,5.44c0.76-4.01,1.26-6.66,1.4-7.37l0,0l1.41-6.46c5.59,1.34,11.46,1.74,17.32,1.19
			c6.89-0.64,13.91-2.98,19.69-7.47c5.77-4.48,9.88-11.01,11.94-17.85c1.13-3.42,1.72-6.93,2.19-10.42c0.15-1.75,0.22-3.5,0.33-5.25
			c0-1.35-0.03-2.71-0.05-4.06c2.22-1.95,4.18-4.21,5.81-6.65c1.62-2.39,2.86-4.99,3.94-7.63c0.96-2.67,1.82-5.4,2.28-8.18
			c1.79-11.08,0.73-22.52-3.4-32.89c-1.89-5.25-4.81-10.02-7.88-14.61l-2.56-3.27l-1.28-1.63l-1.42-1.51l-2.84-3.02
			c-1.01-0.94-2.06-1.84-3.09-2.75c-8.31-7.26-18.37-12.4-28.99-15.07c-1.31-0.41-2.66-0.64-4.01-0.86l-4.04-0.7
			c-1.37-0.13-2.73-0.28-4.1-0.37c-1.37-0.03-2.74-0.13-4.11-0.06c-4.61,0.11-9.18,0.77-13.62,1.88
			c-10.91-8.94-23.44-16.13-37.08-20.36c-4.14-1.51-8.48-2.35-12.77-3.36c-4.36-0.62-8.71-1.49-13.13-1.64
			c-4.4-0.45-8.83-0.2-13.25-0.13c-4.4,0.45-8.83,0.71-13.15,1.66c-4.38,0.69-8.6,2.07-12.85,3.26c-4.13,1.59-8.34,2.98-12.25,5.07
			c-1.99,0.97-3.99,1.91-5.84,3.12c-1.88,1.16-3.79,2.25-5.65,3.46c-3.69,2.46-7.16,5.31-10.27,8.54c-3.1,3.23-5.86,6.87-7.84,10.95
			c-1.06,2.15-1.86,4.42-2.44,6.74c-7.16-0.33-14.41,0.52-21.37,2.4c-9.86,2.71-19.19,7.45-27.26,13.82
			c-8.12,6.32-14.94,14.32-19.98,23.36c-5.01,9.06-8.05,19.22-8.72,29.64c-0.12,1.3-0.2,2.6-0.09,3.92l0.17,3.93
			c-0.01,1.31,0.31,2.6,0.49,3.9c0.21,1.29,0.39,2.59,0.64,3.88c1.32,5.06,2.91,10.1,5.52,14.63c2.38,4.65,5.59,8.75,8.89,12.69
			c3.51,3.76,7.21,7.33,11.32,10.35c7.87,6.02,16.59,10.76,25.69,14.33c-5.9,11.97,12.03,40.93,16.47,47.02
			c1.28,2.62,6.43,12.57,12.07,14.35c0.3,0.1,0.61,0.16,0.91,0.22c3.11,15.66,5.74,28.62,6.46,31.52c0.81,3.24,5.8,9.37,12.84,16.22
			c-4.88,2.03-10.85,5.07-12.32,8.3c-1.55,3.41-10.43,29-12.69,35.53l-80.32,24.81l-5.94,1.82c0.29,2.02,0.69,4.04,1.22,6.04
			c11.51,43.16,80.4,76.42,163.43,76.42c83.03,0,151.96-33.28,163.43-76.44c0.55-2,0.96-4.02,1.22-6.04L414.95,392.58z M314.16,333
			c-0.21,2.51-1.2,8.08-5.46,13.46c5.5-10.77-0.7-15.55-4.25-17.66c0.08-0.07,0.16-0.14,0.24-0.21
			C308.41,330,311.94,331.66,314.16,333z M302.17,352.42c-1.56,1.03-3.37,2.19-5.35,3.46c-17.1,10.98-33.89,22.41-40.59,33.13
			c-6.71-10.72-23.49-22.16-40.6-33.13c-1.98-1.27-3.79-2.43-5.34-3.46c-0.35-0.23-0.66-0.48-0.99-0.71l2.33-11.54
			c7.18,8.24,28.28,30.8,44.38,30.8c19.69,0,47.22-33.78,47.22-33.78l-1.25-6.2c0.36-0.32,0.73-0.63,1.09-0.95l4.04,18.25
			C305.74,349.73,304.13,351.13,302.17,352.42z M201.96,343.95c-2.75-4.47-3.48-8.72-3.66-10.88c2.14-1.31,5.52-2.92,9.11-4.31
			C204.16,330.67,198.54,334.85,201.96,343.95z M256.23,175.4c-13.59,0.02-53.72,0.08-81.5,26.36l-11.87-42.15
			c4.72-1.11,9.35-2.86,13.6-5.39c5.24-3.07,9.87-7.38,13.16-12.49c0.27-0.41,0.51-0.84,0.76-1.26c2.75,1.43,5.64,2.63,8.62,3.61
			c6.63,2.18,13.87,3.12,21.03,2.13c3.57-0.5,7.1-1.42,10.42-2.87c3.3-1.48,6.41-3.36,9.14-5.65c1.32-1.11,2.55-2.3,3.71-3.55
			c6.25-0.63,23.16-2.09,32.8-0.51l0.03-0.17c2.52,2.08,5.25,3.87,8.1,5.31c1.19,0.63,2.4,1.22,3.61,1.81l3.75,1.38
			c1.25,0.45,2.5,0.94,3.76,1.36l3.81,1.06c1.28,0.33,2.55,0.68,3.84,0.97l3.93,0.69c2.6,0.54,5.28,0.71,7.95,0.9
			c5.34,0.07,10.84-0.08,16.05-1.86c0.29-0.09,0.57-0.19,0.85-0.29c1.65,4.61,4.51,8.64,8.15,11.9c1.81,1.63,3.83,2.99,5.95,4.17
			l-8.86,40.52C309.3,175.36,269.69,175.42,256.23,175.4z M350.02,216.05c0.8-0.17,1.43-0.01,2.11,0.52
			c4.74,3.76-5.02,27.68-15.47,41.68l-0.31,0.51c-1.74,3.65-4.12,7.28-6.01,9.45c0.71-3.66,1.42-7.39,2.14-11.12l0.01,0.01
			c1.46-1.33,2.9-2.76,3.94-4.5c1.1-1.69,1.96-3.57,2.49-5.54c0.56-1.96,0.87-3.99,0.95-6.04c0.04-1.72-0.03-3.37-0.32-5.13
			c1.08-2.04,2.32-3.99,3.82-5.69c0.74-0.88,1.6-1.61,2.55-2.23c0.95-0.58,2.13-0.97,3.26-0.54c-1.01-0.68-2.42-0.56-3.57-0.16
			c-1.16,0.43-2.28,1.03-3.26,1.78c-0.45,0.33-0.85,0.72-1.27,1.08c0.09-0.5,0.11-1.05,0.04-1.73c-0.13-1.22-0.22-2.42-0.28-3.64
			C343.53,220.86,347.12,216.67,350.02,216.05z M386.16,175.7c-0.87,3-2.03,5.88-3.6,8.51c-1.52,2.65-3.41,5.1-5.72,7.13
			c-4.54,4.18-10.49,6.85-16.81,8.31c-3.17,0.75-6.44,1.17-9.75,1.35c-2.29,0.15-4.6,0.13-6.92,0.03l8.23-37.62
			c1,0.36,2.01,0.71,3.03,0.99c2.68,0.82,5.44,1.1,8.19,1.48c1.37,0.12,2.75,0.12,4.13,0.18c1.38,0.06,2.76,0.11,4.12-0.02
			c2.74-0.17,5.45-0.27,8.29-0.82c2.78-0.61,5.58-1.41,8.16-2.72c0.27-0.13,0.54-0.28,0.81-0.41
			C388.05,166.75,387.43,171.34,386.16,175.7z M120.96,186.64c-2.95-3.77-5.79-7.64-7.8-11.93c-2.25-4.18-3.63-8.71-4.74-13.27
			c-0.2-1.16-0.34-2.33-0.51-3.49c-0.13-1.17-0.42-2.31-0.38-3.5c0.01-2.35-0.29-4.7,0.04-7.05c1.18-18.95,11.33-36.87,26.03-49.1
			c12.38-10.37,28.19-16.93,44.61-17.68c-0.19,1.15-0.32,2.31-0.38,3.47c-0.38,9,2.83,17.74,8.17,24.47
			c-4.32-7.4-6.52-16.05-5.41-24.23c1.03-8.23,5.62-15.46,11.65-21c3.03-2.78,6.37-5.25,9.89-7.45c1.79-1.07,3.65-2.04,5.47-3.06
			c1.79-1.08,3.72-1.9,5.63-2.74c3.75-1.85,7.73-3.12,11.65-4.54c4.04-1.04,8.03-2.27,12.17-2.85c4.07-0.91,8.26-1.14,12.4-1.57
			c4.17-0.07,8.34-0.27,12.51,0.08c4.19,0.06,8.31,0.82,12.46,1.32c4.08,0.93,8.23,1.56,12.23,2.85
			c12.39,3.38,24.05,9.08,34.92,16.18c-9.89,3.18-18.88,8.55-26.57,15.21c8.76-5.97,18.36-10.71,28.53-12.94
			c10.15-2.29,20.66-1.97,30.48,1.13c9.78,3.02,19.02,7.94,26.46,14.92l2.79,2.6l2.56,2.82l1.28,1.41l1.15,1.52l2.3,3.03
			c2.74,4.25,5.34,8.64,6.98,13.42c1.03,2.31,1.56,4.78,2.28,7.2c0.37,1.21,0.47,2.47,0.72,3.7c0.17,1.24,0.53,2.47,0.55,3.73
			c0.13,2.51,0.46,5.02,0.24,7.53c-0.06,1.25-0.07,2.52-0.16,3.77c-0.18,1.23-0.24,2.48-0.5,3.69c-0.37,2.46-1.09,4.82-1.87,7.15
			c-0.9,2.28-1.92,4.51-3.25,6.53c-1.34,2-2.83,3.92-4.62,5.51c-1.75,1.64-3.7,3.05-5.86,4.13c-2.11,1.16-4.45,1.89-6.81,2.5
			c-2.36,0.54-4.95,0.72-7.49,1c-1.28,0.19-2.55,0.19-3.82,0.19c-1.27,0-2.55,0.06-3.82,0.01c-2.52-0.24-5.06-0.39-7.5-1
			c-4.92-1.02-9.63-3.04-13.6-6.12c-2.01-1.51-3.77-3.35-5.3-5.36c-1.14-1.47-2.16-3.11-2.94-4.79c4.12-1.67,7.92-4.12,11.03-7.21
			c3.76-3.86,6.45-8.54,8.01-13.46c-2.79,4.34-6.04,8.28-10,11.2c-3.93,2.95-8.44,4.84-13.12,5.88c-4.69,1.06-9.6,1.08-14.45,0.69
			c-2.43-0.31-4.87-0.43-7.29-1.01l-3.63-0.7c-1.2-0.29-2.4-0.66-3.6-0.97l-3.61-0.93c-1.18-0.37-2.33-0.8-3.49-1.2l-3.49-1.21
			l-3.31-1.53c-2.3-0.89-4.29-2.23-6.36-3.46c-1.08-0.57-1.88-1.46-2.85-2.15l-0.51-0.39l0-0.01c-0.01,0-0.02,0-0.02,0l-0.9-0.69
			c-0.45-0.39-0.82-0.84-1.24-1.26c-6.89-6.54-9.42-17.08-6.81-27.09c-2.52,4.53-3.57,9.94-3.12,15.34c0.4,4.62,2.16,9.19,4.9,13.02
			c-7.26-0.33-15.6,0.14-21.61,0.63c1.31-2.15,2.43-4.39,3.33-6.71c-4.65,5.04-9.47,9.57-14.85,13c-2.74,1.63-5.55,3.04-8.49,4.12
			c-2.94,1.07-5.99,1.77-9.09,2.2c-6.21,0.88-12.64,0.44-19.04-0.68c-2.74-0.51-5.48-1.18-8.22-1.93c1.88-4.01,2.99-8.33,3.23-12.64
			c-2.8,5.16-5.7,9.93-9.39,13.93c-3.62,4.04-7.82,7.41-12.45,10.14c-4.62,2.77-9.66,4.93-14.92,6.7
			c-5.27,1.79-10.73,3.2-16.45,4.43c5.39,1.23,11,1.17,16.51,0.38l-1.6,0.45l13.35,47.41c0.14,0.73,0.61,3.15,1.32,6.8
			c-2.4-2.45-5.13-4.47-7.98-5.08c-2.59-0.55-5.07,0.04-7.19,1.71c-0.22,0.17-0.4,0.37-0.6,0.56c-8.86-4.12-17.17-9.34-24.56-15.52
			C127.46,193.74,124.14,190.22,120.96,186.64z M175.96,258.77l-0.31-0.51c-10.45-14.01-20.22-37.93-15.47-41.68
			c0.68-0.54,1.31-0.69,2.11-0.52c2.58,0.55,5.9,4.1,8.64,7.95c0.02,1.91,0.27,3.8-0.21,5.71c-0.26-0.21-0.49-0.45-0.76-0.65
			c-0.98-0.75-2.1-1.35-3.26-1.78c-1.15-0.41-2.56-0.52-3.57,0.16c1.13-0.43,2.31-0.04,3.26,0.54c0.95,0.62,1.81,1.35,2.55,2.23
			c1.5,1.71,2.74,3.66,3.82,5.69c-0.29,1.76-0.36,3.41-0.32,5.13c0.07,2.04,0.38,4.08,0.95,6.04c0.54,1.97,1.4,3.84,2.49,5.54
			c1.02,1.71,2.43,3.11,3.86,4.43c0.73,3.72,1.47,7.45,2.19,11.11C180.03,265.96,177.69,262.37,175.96,258.77z M195.94,306.28
			c-0.56-2.24-2.34-10.96-4.62-22.35c0.71-6.65,3.16-9.18,4.72-10.11c1.65,2.37,3.01,4.95,4.25,7.65c1.52,3.32,2.85,6.75,4.02,10.24
			c-0.68-3.62-1.53-7.22-2.59-10.78c-1.06-3.54-2.37-7.15-4.31-10.44c-0.96-1.69-1.98-3.33-3.03-4.94
			c-0.21-0.34-0.44-0.68-0.68-1.02c-0.77-1.17-1.54-2.33-2.32-3.49c-2.06-3-4.16-5.94-6.34-8.89c-1.12-5.7-2.22-11.31-3.25-16.54
			c1.15-7.22,2.57-18.21,2.92-30.08c15.49-9.67,47.42-25.15,90.61-23.2c15.53,1.56,36.04,6.12,52.86,19.44
			c-0.05,7.91-0.09,29.49,0.78,41.18c-0.6,3.16-1.22,6.39-1.85,9.65c-2.06,2.79-4.06,5.59-6.01,8.43c-2.09,3.08-4.16,6.17-6.03,9.44
			c-1.94,3.29-3.26,6.9-4.31,10.44c-1.06,3.56-1.91,7.16-2.59,10.78c1.17-3.49,2.5-6.92,4.02-10.24c1.27-2.78,2.68-5.42,4.39-7.85
			c1.37,0.68,3.83,2.69,4.84,8.5c-2.39,12.27-4.3,21.8-4.89,24.15c-1.71,6.84-43,44.62-60.29,44.62S197.65,313.12,195.94,306.28z
			 M98.62,398.68l83.99-25.94l0.51-1.47c2.32-6.75,7.56-21.8,10.67-30.39c1.79,5.21,5.5,11.61,13.14,16.64
			c1.58,1.04,3.4,2.21,5.4,3.49c13.26,8.51,40.84,26.21,40.84,37.14v16.85c-47.1-0.11-88.29-16.22-88.91-16.46l-4.73-1.89l2,18.46
			l-12.27-2.25c0,0,3.65,25.14,6.84,39.32C125.35,439.13,104.07,420.2,98.62,398.68z M222.74,468.9
			c-25.71-8.67-47.79-21.08-47.79-21.08l1.19,11.61c-1.27-0.39-2.53-0.78-3.77-1.18l-5.66-52.26c8.49,2.98,27.66,9.06,51.82,12.6
			c28.66,4.2,69.63,5.32,104.91-12.23l2.08,56.1c-2.25,0.57-4.53,1.11-6.84,1.63l-5.3-45.09c0,0-38.43,8.42-52.38,9.27
			c0,0,16.07,3.23,37.12,4.93c0,0-21.93,6.8-42.45,7.48l1.14,24.49c0,0,14.78,2.49,43.36,2.38c-13.96,2.1-28.69,3.23-43.93,3.23
			C244.74,470.78,233.55,470.12,222.74,468.9z M331.57,460.83l-2.39-64.51l-4.35,2.39c-20.49,11.26-43.49,15.61-65.54,16.23v-16.77
			c0-10.93,27.58-28.63,40.84-37.14c2-1.28,3.83-2.46,5.41-3.5c7.69-5.06,11.39-11.5,13.17-16.73c3.12,8.59,8.38,23.7,10.72,30.48
			l0.49,1.47l83.93,25.92C407.04,425.56,375.48,448.43,331.57,460.83z"/>
		<path class="st0" d="M283.4,390c-4.57,0-8.29,4.08-8.29,9.1c0,5.02,3.72,9.1,8.29,9.1s8.29-4.08,8.29-9.1
			C291.69,394.08,287.97,390,283.4,390z M277.54,401.49c-0.24-0.75-0.39-1.55-0.39-2.39c0-3.89,2.8-7.06,6.25-7.06
			c0.33,0,0.65,0.05,0.97,0.11c-3.2,0.38-5.71,3.33-5.71,6.95c0,0.51,0.06,1,0.15,1.48L277.54,401.49z M288.92,402.32
			c-0.88,1.34-2.28,2.23-3.87,2.23c-2.66,0-4.83-2.45-4.83-5.45c0-3,2.17-5.45,4.83-5.45c1.59,0,2.99,0.88,3.87,2.23
			c0.45,0.97,0.72,2.05,0.72,3.22C289.65,400.27,289.37,401.35,288.92,402.32z"/>
	</g>
</g>
<g id="Layer_4">
	<g>
		<path class="st1" d="M147.68,349.05l-25.61,14.46c0,0-58.82-100.83-51.51-133.88c0,0,8.65,3.35,23.09,27.07
			C108.09,280.43,147.68,349.05,147.68,349.05z"/>
		<path class="st2" d="M74.45,232.28c-0.54,10.41,2.94,45.06,51.9,129.02"/>
		<path class="st0" d="M80.74,245.67c0,0,17.69,27.59,24.17,38.7c6.49,11.11,35.91,60.99,35.91,60.99l-7.25,4.09
			c0,0-13.23-20.18-22.41-35.69c-9.18-15.51-10.72-21.6-19.67-40.82C82.54,253.73,79.69,249.43,80.74,245.67z"/>
		<path class="st0" d="M147.94,347.84l-0.73,0.42l-17.04,9.62l0.47,0.81l4.24,7.52c0,0,5.41,0.05,8.47,4.58l14.99-4.63
			C152.38,355.65,147.94,347.84,147.94,347.84z"/>
	</g>
</g>
<g id="Layer_3">
	<g>
		<g>
			<g>
				<g>
					<g>
						<path class="st0" d="M397.26,254.03c-0.29-0.91-0.91-1.64-1.74-2.08c-0.83-0.44-1.76-0.54-2.67-0.25
							c-0.91,0.27-1.64,0.88-2.08,1.71l-26.74,50.74c-0.91,1.71-0.25,3.84,1.47,4.75c0.64,0.32,1.32,0.47,2.01,0.39
							c0.24-0.02,0.47-0.07,0.69-0.15c0.88-0.27,1.62-0.88,2.06-1.71l26.74-50.74C397.43,255.86,397.53,254.91,397.26,254.03z
							 M395.01,255.64l-26.74,50.74c-0.15,0.32-0.42,0.54-0.73,0.64c-0.12,0.05-0.27,0.05-0.39,0.05c-0.2,0-0.42-0.05-0.59-0.15
							c-0.64-0.32-0.86-1.1-0.54-1.74l26.74-50.72c0.17-0.32,0.44-0.54,0.76-0.64c0.07-0.02,0.15-0.05,0.24-0.05
							c0.25-0.02,0.49,0.02,0.73,0.15c0.29,0.15,0.51,0.42,0.61,0.76C395.2,255.01,395.18,255.35,395.01,255.64z"/>
					</g>
				</g>
				<g>
					<g>
						<path class="st0" d="M407.15,259.24c-0.29-0.91-0.88-1.64-1.71-2.08c-0.83-0.44-1.79-0.54-2.69-0.25
							c-0.91,0.27-1.64,0.88-2.08,1.71l-26.74,50.74c-0.44,0.83-0.51,1.79-0.24,2.67c0.29,0.91,0.88,1.64,1.71,2.08
							c0.64,0.34,1.32,0.47,2.03,0.39c0.22-0.02,0.44-0.07,0.66-0.15c0.88-0.27,1.64-0.88,2.06-1.71l26.77-50.74
							C407.35,261.08,407.42,260.12,407.15,259.24z M404.92,260.88l-26.77,50.72c-0.15,0.32-0.42,0.54-0.73,0.64
							c-0.12,0.05-0.24,0.05-0.39,0.05c-0.2,0-0.42-0.05-0.59-0.15c-0.29-0.15-0.51-0.42-0.61-0.76c-0.12-0.32-0.07-0.66,0.07-0.95
							l26.74-50.74c0.17-0.32,0.44-0.54,0.76-0.64c0.07-0.02,0.17-0.02,0.24-0.05c0.24-0.02,0.51,0.02,0.73,0.15
							c0.29,0.17,0.51,0.42,0.64,0.76C405.12,260.22,405.07,260.57,404.92,260.88z"/>
					</g>
				</g>
				<g>
					<g>
						<path class="st0" d="M415.33,262.38c-0.83-0.44-1.79-0.51-2.69-0.24c-0.88,0.27-1.62,0.88-2.06,1.71l-26.74,50.74
							c-0.27,0.51-0.42,1.08-0.42,1.64c0,1.25,0.69,2.47,1.89,3.11c0.61,0.34,1.32,0.47,2.01,0.39c0.22-0.02,0.44-0.07,0.66-0.15
							c0.91-0.27,1.64-0.88,2.08-1.71l26.74-50.74C417.71,265.41,417.04,263.28,415.33,262.38z M414.82,266.1l-26.74,50.72
							c-0.17,0.32-0.44,0.54-0.76,0.64c-0.12,0.05-0.27,0.05-0.39,0.05c-0.2,0-0.39-0.05-0.59-0.15c-0.61-0.32-0.86-1.1-0.54-1.71
							l26.77-50.74c0.15-0.29,0.42-0.51,0.73-0.64c0.1-0.02,0.17-0.02,0.24-0.05c0.24-0.02,0.51,0.02,0.73,0.15
							C414.91,264.7,415.13,265.46,414.82,266.1z"/>
					</g>
				</g>
				<g>
					<g>
						<path class="st0" d="M425.22,267.59c-0.83-0.44-1.79-0.51-2.67-0.24c-0.91,0.29-1.64,0.91-2.08,1.71l-26.74,50.74
							c-0.27,0.51-0.42,1.08-0.42,1.64c0,1.25,0.69,2.47,1.89,3.11c0.64,0.34,1.32,0.47,2.01,0.39c0.22-0.02,0.44-0.07,0.66-0.15
							c0.91-0.27,1.64-0.88,2.08-1.71l26.74-50.74C427.6,270.63,426.94,268.5,425.22,267.59z M424.71,271.32l-26.74,50.74
							c-0.17,0.29-0.42,0.51-0.76,0.61c-0.12,0.05-0.25,0.05-0.37,0.05c-0.2,0-0.42-0.05-0.59-0.15c-0.64-0.32-0.88-1.1-0.54-1.71
							l26.74-50.74c0.15-0.29,0.42-0.51,0.76-0.61c0.07-0.02,0.15-0.05,0.24-0.07c0.25-0.02,0.49,0.02,0.71,0.15
							C424.81,269.92,425.05,270.68,424.71,271.32z"/>
					</g>
				</g>
			</g>
			<path class="st0" d="M363.53,318.6c0,0,3.74,18.47,25.34,11.38C388.87,329.97,378.33,327.75,363.53,318.6z"/>
			<path class="st0" d="M395.49,247.02c0,0,17.94,1.1,37.91,20.31C433.4,267.33,418.89,246.6,395.49,247.02z"/>
			<path class="st0" d="M416.67,306.49c0,0,10.56-15.99,14.66-25.35C431.33,281.14,420.22,294.98,416.67,306.49z"/>
		</g>
		<path class="st0" d="M418.02,245.65c-2.45-1.27-24.39-12.32-33.94-6.42c-9.72,5.98-32.96,55.29-32.54,85.61l0.02,0.22l0.02,0.22
			c0.07,0.27,1.37,6.83,4.33,14.99c0.59,2.33-3.13,11.36-9.18,23.56l4.63,1.42l6.27,1.93l4.7,1.44
			c5.93-10.46,10.65-17.48,12.71-18.27c8.45-2.15,14.59-4.78,14.84-4.9l0.39-0.2c25-16.6,52.26-62.91,52.26-74.86v-0.34
			C441.97,258.83,420.52,246.97,418.02,245.65z M359.67,363.65l-6.49-2.13c2.38-4.97,4.07-8.83,5.21-11.82c0-0.01,0-0.01,0.01-0.02
			c2.05,3.07,5.18,3.88,7.5,4C364.21,356.13,362.17,359.38,359.67,363.65z M387.81,341.16c-1.03,0.42-6.06,2.49-12.75,4.3
			c-6.11-1-12.1-5.08-14.67-7.03v-0.02c-2.52-6.93-3.8-12.73-4.04-13.86c-0.29-29.9,22.48-76.43,30.24-81.23
			c5.51-3.38,20.86,2.25,29.21,6.56c8.33,4.48,21.62,13.96,21.94,20.4C438.18,279.42,412.66,324.5,387.81,341.16z"/>
	</g>
</g>
</svg>
